<?xml version="1.0" encoding="iso-8859-1"?>
<!-- Generator: Adobe Illustrator 19.0.0, SVG Export Plug-In . SVG Version: 6.00 Build 0)  -->
<svg version="1.1" id="Layer_1" xmlns="http://www.w3.org/2000/svg" xmlns:xlink="http://www.w3.org/1999/xlink" x="0px" y="0px"
	 viewBox="0 0 509.287 509.287" style="enable-background:new 0 0 509.287 509.287;" xml:space="preserve">
<circle style="fill:#FBD303;" cx="254.644" cy="254.644" r="254.644"/>
<path style="fill:#6EB1E1;" d="M444.185,107.825H65.102c-9.494,0-16.954,7.46-16.954,16.954v241.759
	c0,9.494,7.46,16.954,16.954,16.954h378.744c9.494,0,16.954-7.46,16.954-16.954V124.779
	C461.139,115.285,453.34,107.825,444.185,107.825z"/>
<rect x="87.82" y="173.266" style="fill:#FCFCFD;" width="333.987" height="173.944"/>
<g>
	<circle style="fill:#646B79;" cx="181.065" cy="225.823" r="27.126"/>
	<path style="fill:#646B79;" d="M241.42,322.119c-1.017-32.551-27.804-58.66-60.694-58.66s-59.677,26.109-60.694,58.66
		L241.42,322.119L241.42,322.119z"/>
</g>
<g>
	<rect x="278.04" y="234.977" style="fill:#DEDEDF;" width="110.877" height="17.971"/>
	<rect x="278.04" y="286.177" style="fill:#DEDEDF;" width="110.877" height="17.971"/>
</g>
<rect x="213.616" y="129.526" style="fill:#393D47;" width="82.395" height="20.683"/>
<rect x="228.535" y="57.981" style="fill:#F0582F;" width="52.217" height="81.717"/>
<g>
</g>
<g>
</g>
<g>
</g>
<g>
</g>
<g>
</g>
<g>
</g>
<g>
</g>
<g>
</g>
<g>
</g>
<g>
</g>
<g>
</g>
<g>
</g>
<g>
</g>
<g>
</g>
<g>
</g>
</svg>
