<?xml version="1.0" encoding="iso-8859-1"?>
<!-- Generator: Adobe Illustrator 19.0.0, SVG Export Plug-In . SVG Version: 6.00 Build 0)  -->
<svg version="1.1" id="Layer_1" xmlns="http://www.w3.org/2000/svg" xmlns:xlink="http://www.w3.org/1999/xlink" x="0px" y="0px"
	 viewBox="0 0 460.001 460.001" style="enable-background:new 0 0 460.001 460.001;" xml:space="preserve">
<path style="fill:#E5C400;" d="M97.281,436.471c8.03-29.405,21.828-56.398,27.159-61.729l-19.602-19.588L85.25,335.552
	c-5.331,5.331-32.31,19.129-61.716,27.158c0,0-2.028,54.823-8.173,64.723c-14.32,2.384-17.8,18.293-13.833,26.274
	c0,0,40.313-40.326,45.998-45.998l-0.007-0.007c-3.357-5.508-2.658-12.784,2.104-17.545c5.591-5.591,14.641-5.584,20.217-0.007
	c5.584,5.584,5.584,14.641,0,20.225c-4.768,4.754-12.044,5.453-17.546,2.103c-5.686,5.672-45.998,45.998-45.998,45.998
	c7.968,3.967,23.876,0.473,26.261-13.846C42.472,438.485,97.281,436.471,97.281,436.471z"/>
<path style="fill:#59595A;" d="M454.036,5.97c-11.489-11.489-31.413-5.255-54.44,9.002l45.423,45.423
	C459.277,37.369,465.518,17.453,454.036,5.97z"/>
<path style="fill:#5F95DD;" d="M388.161,133.08c15.923-18.457,32.81-38.223,46.211-56.858l-50.596-50.596
	c-18.642,13.394-38.407,30.282-56.858,46.211c-18.552,16.018-54.603,52.288-92.682,91.587c-5.721,5.913-11.497,11.893-17.265,17.881
	c-54.501,56.611-108.399,114.1-117.231,122.931c-15.963,15.963-14.49,31.316-14.49,31.316l19.588,19.602l19.595,19.595
	c0,0,15.367,1.473,31.324-14.483c8.838-8.838,66.319-62.744,122.944-117.244c5.981-5.762,11.956-11.531,17.868-17.265
	C335.88,187.677,372.15,151.626,388.161,133.08z"/>
<path style="opacity:0.4;fill:#5B5B5F;enable-background:new    ;" d="M442.142,64.907c0.988-1.514,1.955-3.021,2.878-4.512
	l-45.423-45.423c-5.139,3.179-10.435,6.775-15.82,10.654l50.596,50.596c0.538-0.75,1.058-1.493,1.585-2.239
	c2.994,6.376,2.344,13.767-3.747,26.325c-6.426,13.248-19.378,23.517-33.091,34.39c-7.438,5.897-15.13,11.996-21.849,18.716
	c-21.19,21.189-29.833,44.966-29.833,82.068h10c0-28.867,4.575-52.669,26.905-74.998c6.312-6.312,13.774-12.229,20.991-17.95
	c13.988-11.092,28.453-22.561,35.875-37.862C450.168,86.197,449.182,75.088,442.142,64.907z"/>
<path style="opacity:0.4;fill:#5B5B5F;enable-background:new    ;" d="M235.804,161.807c-0.523,0.539-1.044,1.077-1.568,1.617
	c-5.721,5.913-11.497,11.893-17.265,17.881c-0.521,0.541-1.041,1.082-1.562,1.623l61.661,61.661c0.543-0.522,1.087-1.045,1.63-1.568
	c5.981-5.762,11.956-11.531,17.868-17.265c0.54-0.523,1.078-1.045,1.617-1.568L235.804,161.807z"/>
<path style="opacity:0.3;fill:#5B5B5F;enable-background:new    ;" d="M445.019,60.396c14.257-23.026,20.499-42.943,9.016-54.425
	c-0.001-0.001-0.002-0.002-0.003-0.002l-43.855,43.855L69.846,390.155c5.579,5.584,5.578,14.638-0.004,20.22
	c-4.768,4.754-12.044,5.454-17.546,2.103c-5.686,5.672-45.998,45.999-45.998,45.999c7.968,3.967,23.876,0.474,26.261-13.846
	c9.913-6.146,64.722-8.16,64.722-8.16c8.027-29.394,21.817-56.376,27.152-61.722c0.01,0.001,15.372,1.468,31.323-14.483
	c8.838-8.837,66.319-62.744,122.944-117.244c5.981-5.762,11.956-11.531,17.868-17.265c0.54-0.523,1.078-1.045,1.617-1.568l0,0
	c38.686-37.498,74.185-72.818,89.976-91.108c15.668-18.162,32.263-37.589,45.558-55.96l0.003,0.003
	c0.09-0.126,0.203-0.283,0.323-0.451c0.108-0.149,0.22-0.3,0.327-0.45l-0.003-0.005c0.557-0.781,1.224-1.719,1.588-2.234
	c2.994,6.376,2.344,13.767-3.747,26.325c-6.426,13.248-19.378,23.517-33.091,34.39c-7.438,5.897-15.13,11.996-21.849,18.716
	c-21.19,21.189-29.833,44.966-29.833,82.068h10c0-28.867,4.575-52.669,26.905-74.998c6.312-6.312,13.774-12.229,20.991-17.95
	c13.988-11.092,28.453-22.561,35.875-37.862c8.961-18.475,7.975-29.584,0.934-39.765C443.13,63.393,444.096,61.887,445.019,60.396z"
	/>
<g>
</g>
<g>
</g>
<g>
</g>
<g>
</g>
<g>
</g>
<g>
</g>
<g>
</g>
<g>
</g>
<g>
</g>
<g>
</g>
<g>
</g>
<g>
</g>
<g>
</g>
<g>
</g>
<g>
</g>
</svg>
