<?xml version="1.0"?>
<svg xmlns="http://www.w3.org/2000/svg" xmlns:xlink="http://www.w3.org/1999/xlink" version="1.1" id="Capa_1" x="0px" y="0px" viewBox="0 0 436.907 436.907" style="enable-background:new 0 0 436.907 436.907;" xml:space="preserve" width="512px" height="512px" class=""><g><circle style="fill:#10AB34" cx="218.453" cy="218.453" r="218.453" data-original="#E05B49" class="active-path" data-old_color="##10AB3"/><path style="opacity:0.1;enable-background:new    ;" d="M286.244,149.473l-0.226-0.226l-0.054,0.017  c-0.658-0.568-1.448-0.961-2.348-0.961h-179.67c-2.144,0-3.882,1.922-3.882,4.294v111.786h-9.61v11.748L249.05,434.729  c82.532-11.574,150.228-69.241,176.291-146.159L286.408,149.638C286.356,149.577,286.299,149.53,286.244,149.473z" data-original="#000000" class=""/><path style="fill:#D5D6DB;" d="M283.616,148.303h-179.67c-2.144,0-3.882,1.922-3.882,4.294v113.756c0,2.372,1.738,4.294,3.882,4.294  h179.67c2.144,0,3.882-1.923,3.882-4.294V152.597C287.498,150.225,285.76,148.303,283.616,148.303z" data-original="#D5D6DB"/><rect x="110.217" y="155.238" style="fill:#64798A;" width="167.12" height="102.154" data-original="#64798A"/><g>
	<path style="fill:#EBF0F3;" d="M142.85,202.23l-2.375-6.106h-10.713l-2.377,6.106h-6.069l11.042-28.267h5.52l11.042,28.267H142.85z    M135.136,182.375l-3.218,8.209h6.398L135.136,182.375z" data-original="#EBF0F3"/>
	<path style="fill:#EBF0F3;" d="M163.067,202.23H151.88v-28.267h9.943c1.73,0,3.223,0.23,4.479,0.687   c1.255,0.459,2.2,1.079,2.833,1.861c1.145,1.455,1.718,3.101,1.718,4.933c0,2.211-0.646,3.856-1.938,4.933   c-0.437,0.378-0.744,0.614-0.913,0.708c-0.171,0.095-0.476,0.249-0.915,0.464c1.585,0.378,2.846,1.167,3.785,2.366   c0.937,1.201,1.406,2.689,1.406,4.469c0,1.969-0.608,3.706-1.828,5.216C169.038,201.354,166.577,202.23,163.067,202.23z    M157.582,185.407h2.706c1.585,0,2.76-0.187,3.528-0.565c0.768-0.378,1.153-1.194,1.153-2.447s-0.354-2.082-1.06-2.486   c-0.707-0.404-1.901-0.607-3.584-0.607h-2.742V185.407z M157.582,196.893h3.913c1.633,0,2.857-0.222,3.675-0.667   c0.816-0.445,1.224-1.321,1.224-2.629c0-1.307-0.433-2.17-1.298-2.588c-0.865-0.417-2.249-0.627-4.149-0.627h-3.365V196.893z" data-original="#EBF0F3"/>
	<path style="fill:#EBF0F3;" d="M188.804,196.649c2.803,0,5.094-1.225,6.875-3.68l3.656,4.165   c-2.902,3.613-6.318,5.419-10.256,5.419c-3.936,0-7.179-1.374-9.725-4.125c-2.548-2.749-3.82-6.22-3.82-10.412   c0-4.192,1.298-7.689,3.893-10.495c2.596-2.802,5.771-4.206,9.523-4.206c4.193,0,7.702,1.767,10.531,5.299l-3.547,4.448   c-1.804-2.481-4.047-3.72-6.728-3.72c-2.144,0-3.978,0.775-5.501,2.325c-1.524,1.55-2.286,3.639-2.286,6.268   s0.718,4.737,2.157,6.328C185.014,195.854,186.757,196.649,188.804,196.649z" data-original="#EBF0F3"/>
	<path style="fill:#EBF0F3;" d="M223.356,177.664c2.436,2.467,3.656,5.897,3.656,10.29c0,4.395-1.188,7.873-3.563,10.433   c-2.378,2.562-6.002,3.842-10.877,3.842h-8.738v-28.267h9.029C217.421,173.964,220.916,175.196,223.356,177.664z M219.17,194.467   c1.402-1.457,2.101-3.572,2.101-6.349c0-2.777-0.699-4.914-2.101-6.409c-1.402-1.497-3.553-2.244-6.452-2.244h-3.183v17.185h3.62   C215.764,196.649,217.769,195.921,219.17,194.467z" data-original="#EBF0F3"/>
</g><rect x="90.453" y="264.397" style="fill:#3A556A;" width="205.244" height="11.749" data-original="#3A556A"/><path style="fill:#FFFFFF;" d="M213.398,236.784c-0.726,0-1.431-0.381-1.811-1.058l-16.289-29.047  c-0.559-0.999-0.205-2.262,0.794-2.824c1.002-0.553,2.265-0.202,2.824,0.794l16.289,29.047c0.559,0.999,0.205,2.262-0.794,2.824  C214.089,236.697,213.74,236.784,213.398,236.784z" data-original="#FFFFFF"/><g>
	<circle style="fill:#F6C358" cx="296.004" cy="220.194" r="22.804" data-original="#F6C358" class=""/>
	<path style="fill:#F6C358" d="M300.842,242.993h-4.838h-5.441c-25.19,0-45.611,20.421-45.611,45.611v0h101.5v0   C346.453,263.413,326.033,242.993,300.842,242.993z" data-original="#F6C358" class=""/>
	<path style="fill:#F6C358" d="M260.458,272.709H241.4c-7.972,0-15.447-4.263-19.509-11.122l-15.676-26.477   c-1.944-3.283-0.858-7.524,2.427-9.467c3.28-1.938,7.524-0.861,9.467,2.427l15.676,26.477c1.585,2.678,4.503,4.341,7.615,4.341   h19.059c3.817,0,6.911,3.094,6.911,6.911C267.369,269.615,264.275,272.709,260.458,272.709z" data-original="#F6C358" class=""/>
</g></g> </svg>
